<svg width="96" height="96" version="1.1" xmlns="http://www.w3.org/2000/svg" desc="Created with imagetracer.js version 1.2.6" ><path fill="rgb(199,209,219)" stroke="rgb(199,209,219)" stroke-width="1" opacity="1" d="M 42.5 16 L 45 16.5 L 42.5 17 L 42.5 16 Z " /><path fill="rgb(199,209,219)" stroke="rgb(199,209,219)" stroke-width="1" opacity="1" d="M 51.5 16 L 54 16.5 L 51.5 17 L 51.5 16 Z " /><path fill="rgb(199,209,219)" stroke="rgb(199,209,219)" stroke-width="1" opacity="1" d="M 64.5 20 L 65.5 22 L 64.5 20 Z " /><path fill="rgb(199,209,219)" stroke="rgb(199,209,219)" stroke-width="1" opacity="1" d="M 47 21 Q 50.5 19.9 49 27.5 Q 51.5 29 50 34.5 L 52 38.5 L 41 46.5 L 38.5 52 L 34.5 50 L 21 49 Q 19.9 45.5 27.5 47 L 40 44.5 L 29 29.5 L 30.5 30 L 44.5 40 L 47 21 Z " /><path fill="rgb(199,209,219)" stroke="rgb(199,209,219)" stroke-width="1" opacity="1" d="M 27.5 23 L 23.5 28 L 27.5 23 Z " /><path fill="rgb(199,209,219)" stroke="rgb(199,209,219)" stroke-width="1" opacity="1" d="M 68.5 23 L 72.5 28 L 68.5 23 Z " /><path fill="rgb(199,209,219)" stroke="rgb(199,209,219)" stroke-width="1" opacity="1" d="M 65.5 29 L 66.5 31 L 65.5 29 Z " /><path fill="rgb(199,209,219)" stroke="rgb(199,209,219)" stroke-width="1" opacity="1" d="M 57.5 34 L 56.5 36 L 57.5 34 Z " /><path fill="rgb(199,209,219)" stroke="rgb(199,209,219)" stroke-width="1" opacity="1" d="M 16.5 42 L 17 44.5 L 16 44.5 L 16.5 42 Z " /><path fill="rgb(199,209,219)" stroke="rgb(199,209,219)" stroke-width="1" opacity="1" d="M 79.5 42 L 80 44.5 L 79 44.5 L 79.5 42 Z " /><path fill="rgb(199,209,219)" stroke="rgb(199,209,219)" stroke-width="1" opacity="1" d="M 57.5 44 L 61.5 46 L 75 47 Q 76.1 50.5 68.5 49 L 56 51.5 L 67 66.5 L 65.5 66 L 51.5 56 L 49 75 Q 45.5 76.1 47 68.5 Q 44.5 67 46 61.5 L 44 57.5 L 53 51.5 L 57.5 44 Z " /><path fill="rgb(199,209,219)" stroke="rgb(199,209,219)" stroke-width="1" opacity="1" d="M 46.5 45 L 45.5 47 L 46.5 45 Z " /><path fill="rgb(199,209,219)" stroke="rgb(199,209,219)" stroke-width="1" opacity="1" d="M 49.5 45 L 50.5 47 L 49.5 45 Z " /><path fill="rgb(199,209,219)" stroke="rgb(199,209,219)" stroke-width="1" opacity="1" d="M 45.5 49 L 46.5 51 L 45.5 49 Z " /><path fill="rgb(199,209,219)" stroke="rgb(199,209,219)" stroke-width="1" opacity="1" d="M 50.5 49 L 49.5 51 L 50.5 49 Z " /><path fill="rgb(199,209,219)" stroke="rgb(199,209,219)" stroke-width="1" opacity="1" d="M 16.5 51 L 17 53.5 L 16 53.5 L 16.5 51 Z " /><path fill="rgb(199,209,219)" stroke="rgb(199,209,219)" stroke-width="1" opacity="1" d="M 79.5 51 L 80 53.5 L 79 53.5 L 79.5 51 Z " /><path fill="rgb(199,209,219)" stroke="rgb(199,209,219)" stroke-width="1" opacity="1" d="M 35.5 56 L 34.5 58 L 35.5 56 Z " /><path fill="rgb(199,209,219)" stroke="rgb(199,209,219)" stroke-width="1" opacity="1" d="M 33.5 59 L 32.5 61 L 33.5 59 Z " /><path fill="rgb(199,209,219)" stroke="rgb(199,209,219)" stroke-width="1" opacity="1" d="M 39.5 60 L 38.5 62 L 39.5 60 Z " /><path fill="rgb(199,209,219)" stroke="rgb(199,209,219)" stroke-width="1" opacity="1" d="M 36.5 62 L 35.5 64 L 36.5 62 Z " /><path fill="rgb(199,209,219)" stroke="rgb(199,209,219)" stroke-width="1" opacity="1" d="M 29.5 65 L 30.5 67 L 29.5 65 Z " /><path fill="rgb(199,209,219)" stroke="rgb(199,209,219)" stroke-width="1" opacity="1" d="M 23.5 68 L 27.5 73 L 23.5 68 Z " /><path fill="rgb(199,209,219)" stroke="rgb(199,209,219)" stroke-width="1" opacity="1" d="M 72.5 68 L 68.5 73 L 72.5 68 Z " /><path fill="rgb(199,209,219)" stroke="rgb(199,209,219)" stroke-width="1" opacity="1" d="M 42.5 79 L 45 79.5 L 42.5 80 L 42.5 79 Z " /><path fill="rgb(199,209,219)" stroke="rgb(199,209,219)" stroke-width="1" opacity="1" d="M 51.5 79 L 54 79.5 L 51.5 80 L 51.5 79 Z " /><path fill="rgb(238,238,238)" stroke="rgb(238,238,238)" stroke-width="1" opacity="1" d="M 45.5 16 Q 66 16.5 74 29.5 Q 80 37 80 50.5 L 76 63.5 L 66.5 74 Q 59 80 45.5 80 L 32.5 76 L 22 66.5 Q 16 59 16 45.5 L 20 32.5 L 29.5 22 L 34.5 19 L 45.5 16 Z M 47 21 L 45 40 L 30 30 L 40 45 L 28 47 Q 20 45 21 49 L 38 51 L 29 67 L 45 58 L 47 69 Q 45 76 49 75 L 52 56 L 66 66 L 56 52 L 69 49 Q 76 51 75 47 L 58 45 L 67 29 L 51 38 L 49 28 Q 51 20 47 21 Z " /><path fill="rgb(238,238,238)" stroke="rgb(238,238,238)" stroke-width="1" opacity="1" d="M 47.5 45 L 51 47.5 L 48.5 51 L 45 48.5 L 47.5 45 Z " /><path fill="rgb(31,151,245)" stroke="rgb(31,151,245)" stroke-width="1" opacity="0.30980392156862746" d="M 39.5 8 L 43 8.5 L 39.5 9 L 39.5 8 Z " /><path fill="rgb(31,151,245)" stroke="rgb(31,151,245)" stroke-width="1" opacity="0.30980392156862746" d="M 53.5 8 L 57 8.5 L 53.5 9 L 53.5 8 Z " /><path fill="rgb(31,151,245)" stroke="rgb(31,151,245)" stroke-width="1" opacity="0.30980392156862746" d="M 35.5 9 L 38 9.5 Q 24.4 12.9 17 22.5 Q 11.4 28.4 9.5 38 L 9 35.5 Q 13.3 23.3 22.5 16 L 35.5 9 Z " /><path fill="rgb(31,151,245)" stroke="rgb(31,151,245)" stroke-width="1" opacity="0.30980392156862746" d="M 58.5 9 Q 72.9 12.1 80 22.5 L 86 32.5 L 87 37.5 L 86 37.5 Q 83.1 23.9 73.5 17 L 63.5 11 L 58.5 10 L 58.5 9 Z " /><path fill="rgb(31,151,245)" stroke="rgb(31,151,245)" stroke-width="1" opacity="0.30980392156862746" d="M 8.5 39 L 9 42.5 L 8 42.5 L 8.5 39 Z " /><path fill="rgb(31,151,245)" stroke="rgb(31,151,245)" stroke-width="1" opacity="0.30980392156862746" d="M 87.5 39 L 88 42.5 L 87 42.5 L 87.5 39 Z " /><path fill="rgb(31,151,245)" stroke="rgb(31,151,245)" stroke-width="1" opacity="0.30980392156862746" d="M 8.5 53 L 9 56.5 L 8 56.5 L 8.5 53 Z " /><path fill="rgb(31,151,245)" stroke="rgb(31,151,245)" stroke-width="1" opacity="0.30980392156862746" d="M 87.5 53 L 88 56.5 L 87 56.5 L 87.5 53 Z " /><path fill="rgb(31,151,245)" stroke="rgb(31,151,245)" stroke-width="1" opacity="0.30980392156862746" d="M 9.5 58 Q 12.9 71.6 22.5 79 L 32 84.5 L 30.5 85 Q 21.8 80.8 16 73.5 L 10 63.5 L 9.5 58 Z " /><path fill="rgb(31,151,245)" stroke="rgb(31,151,245)" stroke-width="1" opacity="0.30980392156862746" d="M 86.5 58 L 87 60.5 Q 82.7 72.7 73.5 80 L 63.5 86 L 58.5 87 L 58.5 86 Q 72.1 83.1 79 73.5 Q 84.6 67.6 86.5 58 Z " /><path fill="rgb(31,151,245)" stroke="rgb(31,151,245)" stroke-width="1" opacity="0.30980392156862746" d="M 33.5 85 L 38 86.5 L 35.5 87 L 33.5 85 Z " /><path fill="rgb(31,151,245)" stroke="rgb(31,151,245)" stroke-width="1" opacity="0.30980392156862746" d="M 39.5 87 L 43 87.5 L 39.5 88 L 39.5 87 Z " /><path fill="rgb(31,151,245)" stroke="rgb(31,151,245)" stroke-width="1" opacity="0.30980392156862746" d="M 53.5 87 L 57 87.5 L 53.5 88 L 53.5 87 Z " /><path fill="rgb(0,0,0)" stroke="rgb(0,0,0)" stroke-width="1" opacity="0" d="M 0 0 L 96 0 L 96 96 L 0 96 L 0 0 Z M 40 8 Q 29 10 23 16 Q 12 24 8 40 L 8 57 Q 10 67 16 74 Q 24 84 40 88 L 57 88 Q 67 86 74 80 Q 84 72 88 57 L 88 40 Q 86 29 80 23 Q 74 14 64 10 Q 54 6 40 8 Z " /><path fill="rgb(249,69,14)" stroke="rgb(249,69,14)" stroke-width="1" opacity="1" d="M 66.5 29 L 66 30.5 L 53 52 L 50 50.5 L 51 46.5 Q 50.3 44.3 46.5 45 Q 45.3 47.3 44 44.5 Q 43.3 42.3 45.5 43 L 66.5 29 Z " /><path fill="rgb(52,148,229)" stroke="rgb(52,148,229)" stroke-width="1" opacity="0.9921568627450981" d="M 43.5 8 L 52.5 8 L 63.5 11 Q 72.9 15.1 79 22.5 L 87 38.5 L 88 52.5 Q 84.9 69.9 73.5 79 L 57.5 87 L 43.5 88 Q 26.1 84.9 17 73.5 L 9 57.5 L 8 43.5 Q 11.1 26.1 22.5 17 Q 30.6 10.1 43.5 8 Z M 43 16 Q 33 18 28 23 Q 19 30 16 43 Q 15 60 23 69 Q 30 77 43 80 Q 60 81 69 73 Q 77 66 80 54 Q 81 36 73 28 L 61 18 L 54 16 L 43 16 Z " /><path fill="rgb(52,148,229)" stroke="rgb(52,148,229)" stroke-width="1" opacity="0.9921568627450981" d="M 43.5 44 L 46.5 51 Q 51 50 52 52.5 L 29.5 67 L 30 65.5 L 43.5 44 Z " /></svg>